<svg viewBox="0 0 240 240" xmlns="http://www.w3.org/2000/svg">
  <circle cx="120" cy="120" r="115" fill="#FFF6DA"/>
  <g fill="#E8A83C">
    <circle cx="120" cy="60" r="22"/>
    <circle cx="70" cy="72" r="22"/>
    <circle cx="170" cy="72" r="22"/>
    <circle cx="45" cy="110" r="22"/>
    <circle cx="195" cy="110" r="22"/>
    <circle cx="55" cy="155" r="22"/>
    <circle cx="185" cy="155" r="22"/>
    <circle cx="85" cy="185" r="22"/>
    <circle cx="155" cy="185" r="22"/>
    <circle cx="120" cy="195" r="22"/>
  </g>
  <circle cx="120" cy="135" r="62" fill="#FBD88A" stroke="#3A2A1E" stroke-width="4"/>
  <circle cx="99" cy="128" r="8.5" fill="#3A2A1E"/>
  <circle cx="141" cy="128" r="8.5" fill="#3A2A1E"/>
  <circle cx="102" cy="125" r="2.3" fill="#fff"/>
  <circle cx="144" cy="125" r="2.3" fill="#fff"/>
  <ellipse cx="120" cy="150" rx="22" ry="16" fill="#FFF0C8" stroke="#3A2A1E" stroke-width="3.5"/>
  <path d="M120 143 L112 150 L128 150 Z" fill="#3A2A1E"/>
  <path d="M112 150 Q120 158 128 150" fill="none" stroke="#3A2A1E" stroke-width="3" stroke-linecap="round"/>
</svg>
